<svg xmlns="http://www.w3.org/2000/svg" version="1.1" xmlns:xlink="http://www.w3.org/1999/xlink" xmlns:svgjs="http://svgjs.dev/svgjs" viewBox="0 0 800 800"><defs><filter id="uuunion-blur" x="-100%" y="-100%" width="400%" height="400%" color-interpolation-filters="sRGB">
        <feGaussianBlur in="SourceGraphic" stdDeviation="7.5 0" result="blur"></feGaussianBlur>
        <feDropShadow stdDeviation="12.307692307692308" in="blur" dx="10" dy="10" flood-color="hsl(316, 73%, 52%)" flood-opacity="0.25" x="0%" y="0%" width="100%" height="100%"></feDropShadow>
      </filter><filter id="uuunion-blur2" x="-100%" y="-100%" width="400%" height="400%" color-interpolation-filters="sRGB">
        <feGaussianBlur in="SourceGraphic" stdDeviation="7.5 0" result="blur"></feGaussianBlur>
        <feDropShadow stdDeviation="12.307692307692308" in="blur" dx="-10" dy="-10" flood-color="hsl(316, 73%, 52%)" flood-opacity="0.25" x="0%" y="0%" width="100%" height="100%"></feDropShadow>
      </filter><linearGradient gradientTransform="rotate(0, 0.5, 0.5)" x1="50%" y1="0%" x2="50%" y2="100%" id="uuunion-grad"><stop stop-color="hsl(37, 99%, 67%)" offset="10%"></stop><stop stop-color="hsl(316, 73%, 52%)" offset="90%"></stop></linearGradient><linearGradient gradientTransform="rotate(135, 0.5, 0.5)" x1="50%" y1="0%" x2="50%" y2="100%" id="uuunion-grad2"><stop stop-color="hsl(37, 99%, 67%)" offset="25%"></stop><stop stop-color="hsl(316, 73%, 52%)" offset="100%"></stop></linearGradient><linearGradient gradientTransform="rotate(333, 0.5, 0.5)" x1="50%" y1="0%" x2="50%" y2="100%" id="uuunion-grad3"><stop stop-color="hsl(37, 99%, 67%)" offset="0%"></stop><stop stop-color="hsl(316, 73%, 52%)" offset="75%"></stop></linearGradient></defs><path d="M-78.91 -80.84Q-64.3 -78.1 -49.69 -75.55 -35.08 -73.43 -20.46 -71.95 -5.85 -71.24 8.75 -71.39 23.36 -72.36 37.97 -74.08 52.59 -76.37 67.2 -79.01 81.81 -81.74 96.42 -84.31 111.03 -86.46 125.64 -87.98 140.26 -88.73 154.87 -88.63 169.48 -87.7 184.09 -86.02 198.7 -83.76 213.31 -81.13 227.93 -78.39 242.54 -75.81 257.15 -73.63 271.76 -72.07 286.37 -71.28 300.99 -71.33 315.6 -72.22 330.21 -73.86 344.82 -76.1 359.43 -78.72 374.04 -81.46 388.66 -84.05 403.27 -86.26 417.88 -87.85 432.49 -88.69 447.1 -88.68 461.71 -87.84 476.33 -86.23 490.94 -84.02 505.55 -81.42 520.16 -78.68 534.77 -76.07 549.38 -73.84 564 -72.2 578.61 -71.32 593.22 -71.28 607.83 -72.09 622.44 -73.66 637.06 -75.84 651.67 -78.43 666.28 -81.17 680.89 -83.79 695.5 -86.05 710.11 -87.72 724.73 -88.64 739.34 -88.73 753.95 -87.96 768.56 -86.43 783.17 -84.28 797.78 -81.7 812.4 -78.97 827.01 -76.33 841.62 -74.05 856.23 -72.34 858.09 -57.15 861.46 -41.95 866.11 -26.75 871.71 -11.56 877.88 3.63 884.2 18.82 890.23 34.02 895.55 49.21 899.81 64.41 902.69 79.61 904.02 94.8 903.69 110 901.73 125.19 898.27 140.39 893.56 155.58 887.91 170.78 881.71 185.97 875.4 201.17 869.41 216.37 864.14 231.56 859.96 246.76 857.17 261.95 855.94 277.15 856.37 292.34 858.43 307.54 861.98 322.74 866.76 337.93 872.45 353.13 878.67 368.32 884.97 383.52 890.94 398.71 896.14 413.91 900.24 429.11 902.95 444.3 904.07 459.5 903.53 474.69 901.38 489.89 897.75 505.08 892.9 520.28 887.16 535.48 880.93 550.67 874.63 565.87 868.71 581.06 863.56 596.26 859.54 611.45 856.93 626.65 855.91 641.85 856.54 657.04 858.8 672.24 862.51 687.43 867.42 702.63 873.2 717.82 879.45 733.02 885.74 748.22 891.63 763.41 896.72 778.61 900.66 793.8 903.17 809 904.09 824.19 903.35 839.39 901.01 854.58 897.21 869.78 892.23 884.98 886.41 900.17 871.3 895.67 856.2 889.66 841.09 882.7 825.99 875.49 810.88 868.71 795.78 863.03 780.68 858.98 765.57 856.98 750.47 857.2 735.36 859.63 720.26 864.03 705.15 869.98 690.05 876.9 674.94 884.12 659.84 890.94 644.73 896.7 629.63 900.84 614.52 902.96 599.42 902.86 584.31 900.54 569.21 896.23 554.1 890.35 539 883.47 523.89 876.25 508.79 869.39 493.68 863.56 478.58 859.32 463.47 857.09 448.37 857.07 433.26 859.27 418.16 863.48 403.06 869.3 387.95 876.14 372.85 883.36 357.74 890.26 342.64 896.16 327.53 900.49 312.43 902.84 297.32 902.98 282.22 900.89 267.11 896.77 252.01 891.04 236.9 884.23 221.8 877.01 206.69 870.08 191.59 864.11 176.48 859.68 161.38 857.22 146.27 856.96 131.17 858.94 116.06 862.95 100.96 868.62 85.85 875.39 70.75 882.6 55.65 889.56 40.54 895.59 25.44 900.12 10.33 902.69 -4.76 903.07 -19.87 901.21 -34.97 897.3 -50.08 891.71 -65.18 884.98 -80.29 877.77 -80.55 862.8 -80.78 847.82 -80.95 832.84 -81.06 817.86 -81.09 802.88 -81.05 787.9 -80.94 772.92 -80.76 757.95 -80.53 742.97 -80.26 727.99 -79.97 713.01 -79.69 698.03 -79.42 683.05 -79.2 668.08 -79.03 653.1 -78.92 638.12 -78.9 623.14 -78.94 608.16 -79.06 593.18 -79.24 578.2 -79.48 563.23 -79.75 548.25 -80.04 533.27 -80.32 518.29 -80.58 503.31 -80.81 488.33 -80.97 473.36 -81.07 458.38 -81.09 443.4 -81.04 428.42 -80.92 413.44 -80.73 398.46 -80.49 383.48 -80.22 368.51 -79.93 353.53 -79.65 338.55 -79.39 323.57 -79.17 308.59 -79.01 293.61 -78.92 278.64 -78.9 263.66 -78.95 248.68 -79.08 233.7 -79.27 218.72 -79.51 203.74 -79.79 188.76 -80.07 173.79 -80.36 158.81 -80.61 143.83 -80.83 128.85 -80.99 113.87 -81.08 98.89 -81.09 83.92 -81.03 68.94 -80.9 53.96 -80.71 38.98 -80.46 24 -80.19 9.02 -79.9 -5.95 -79.62 -20.92 -79.36 -35.9 -79.15 -50.88 -79 -65.86 -78.91 -80.84" fill="url(#uuunion-grad)"></path><path d="M-78.91 -80.84Q-79 -65.86 -79.15 -50.88 -79.36 -35.9 -79.62 -20.92 -79.9 -5.95 -80.19 9.02 -80.46 24 -80.71 38.98 -80.9 53.96 -81.03 68.94 -81.09 83.92 -81.08 98.89 -80.99 113.87 -80.83 128.85 -80.61 143.83 -80.36 158.81 -80.07 173.79 -79.79 188.76 -79.51 203.74 -79.27 218.72 -79.08 233.7 -78.95 248.68 -78.9 263.66 -78.92 278.64 -79.01 293.61 -79.17 308.59 -79.39 323.57 -79.65 338.55 -79.93 353.53 -80.22 368.51 -80.49 383.48 -80.73 398.46 -70.56 401.79 -60.38 405.04 -50.2 408.07 -40.03 410.75 -29.85 412.97 -19.68 414.63 -0.6 415.9 2.69 415.98 15.26 408.94 27.76 400.88 40.19 391.96 52.55 382.35 64.83 372.29 77.03 362.04 89.16 351.87 101.21 342.04 113.21 332.78 125.14 324.29 137.03 316.71 148.88 310.12 160.7 304.53 172.5 299.87 184.31 296.04 196.13 292.86 207.97 290.11 219.86 287.56 231.8 284.96 243.81 282.07 255.9 278.65 268.09 274.54 280.39 269.6 292.8 263.74 305.33 256.97 318 249.32 330.8 240.9 343.74 231.86 356.82 222.41 370.03 212.75 383.38 203.13 396.85 193.76 410.44 184.86 424.13 176.58 437.92 169.06 451.78 162.38 465.7 156.54 479.67 151.51 493.66 147.19 507.64 143.45 521.61 140.11 535.54 136.97 549.4 133.81 563.17 130.43 576.84 126.65 590.37 122.3 603.76 117.27 616.97 111.48 630 104.92 642.84 97.61 655.46 89.66 667.85 81.16 680.03 72.3 691.96 63.24 703.67 54.18 715.15 45.31 726.4 36.79 737.43 28.78 748.26 21.38 758.91 14.65 769.38 8.63 779.7 3.27 789.9 -1.47 800 -5.74 793.35 -23.09 787.32 -40.44 782.48 -57.79 779.27 -75.14 778.01 -92.49 778.8 -109.84 781.57 -127.19 786.07 -144.53 771.41 -146.29 756.75 -147.45 742.09 -147.89 727.43 -147.58 712.78 -146.54 698.12 -144.88 683.46 -142.75 668.8 -140.35 654.14 -137.92 639.48 -135.69 624.82 -133.87 610.17 -132.64 595.51 -132.11 580.85 -132.34 566.19 -133.29 551.53 -134.89 536.87 -136.98 522.21 -139.35 507.56 -141.79 492.9 -144.06 478.24 -145.93 463.58 -147.24 448.92 -147.86 434.26 -147.72 419.6 -146.84 404.95 -145.31 390.29 -143.27 375.63 -140.92 360.97 -138.48 346.31 -136.18 331.65 -134.25 316.99 -132.87 302.34 -132.17 287.68 -132.22 273.02 -133.01 258.36 -134.47 243.7 -136.46 229.04 -138.79 214.38 -141.23 199.73 -143.56 185.07 -145.54 170.41 -146.99 155.75 -147.78 141.09 -147.82 126.43 -147.11 111.77 -145.72 97.12 -143.78 82.46 -141.48 67.8 -139.04 53.14 -136.69 38.48 -134.66 23.82 -133.13 9.17 -132.26 -5.48 -132.14 -20.14 -132.76 -34.8 -134.08 -49.46 -135.96 -64.12 -138.23 -78.78 -140.66 -93.43 -143.04 -108.09 -145.12 -122.75 -146.71 -132.13 -134.37 -115.06 -116.36 -105.96 -107.78 -96.92 -98.96 -87.9 -89.97 -78.91 -80.84" fill="url(#uuunion-grad2)" filter="url(#uuunion-blur)"></path><path d="M814.74 390.8Q824.91 393.71 835.09 396.89 845.27 400.2 855.44 403.51 865.62 406.66 875.79 409.52 885.97 411.98 896.14 413.91 900.24 429.11 902.95 444.3 904.07 459.5 903.53 474.69 901.38 489.89 897.75 505.08 892.9 520.28 887.16 535.48 880.93 550.67 874.63 565.87 868.71 581.06 863.56 596.26 859.54 611.45 856.93 626.65 855.91 641.85 856.54 657.04 858.8 672.24 862.51 687.43 867.42 702.63 873.2 717.82 879.45 733.02 885.74 748.22 891.63 763.41 896.72 778.61 900.66 793.8 903.17 809 904.09 824.19 903.35 839.39 901.01 854.58 897.21 869.78 892.23 884.98 886.41 900.17 872.55 896.11 858.68 890.73 844.82 884.47 830.96 877.85 817.1 871.4 803.24 865.66 789.38 861.08 775.51 858.06 761.65 856.82 747.79 857.47 733.93 859.97 720.07 864.1 706.21 869.53 692.34 875.81 678.48 882.44 664.62 888.87 650.76 894.57 636.9 899.08 623.03 902.03 609.17 903.18 595.31 902.44 581.45 899.87 567.59 895.67 553.73 890.19 539.86 883.88 526 877.25 512.14 870.85 498.28 865.19 484.42 860.74 470.55 857.87 456.69 856.8 442.83 857.63 428.97 860.28 415.11 864.55 401.25 870.07 387.38 876.41 373.52 883.04 359.66 889.42 345.8 895.03 331.94 899.42 318.08 902.21 304.21 903.19 290.35 902.28 276.49 899.55 262.63 895.22 248.77 889.64 234.9 883.28 221.04 876.65 207.18 870.29 193.32 864.73 179.46 860.41 165.6 857.69 151.73 856.8 137.87 857.79 124.01 860.61 110.15 865 96.29 870.62 82.42 877.01 68.56 883.64 54.7 889.97 40.84 895.49 26.98 899.74 6.26 897.71 -0.43 882.89 -0.3 872.74 -0.19 862.59 -0.11 852.44 -0.05 842.29 0.22 827.07 0.99 822 13.79 814.91 26.57 806.42 39.3 796.67 51.98 785.91 64.6 774.46 77.15 762.67 89.62 750.92 102.02 739.57 114.33 728.97 126.55 719.4 138.69 711.08 150.75 704.12 162.72 698.58 174.62 694.38 186.46 691.38 198.23 689.35 209.96 688 221.65 686.99 233.32 685.96 244.98 684.57 256.65 682.49 268.34 679.45 280.07 675.24 291.85 669.73 303.7 662.9 315.63 654.78 327.67 645.52 339.81 635.32 352.08 624.48 364.49 613.29 377.04 602.1 389.74 591.23 402.59 581 415.61 571.66 428.78 563.42 442.11 556.39 455.59 550.62 469.21 546.07 482.97 542.59 496.85 540.01 510.84 538.06 524.92 536.45 539.07 534.86 553.28 532.97 567.51 530.51 581.76 527.22 595.98 522.91 610.17 517.46 624.29 510.82 638.32 503.05 652.24 494.25 666.02 484.6 679.64 474.35 693.08 463.76 706.33 453.13 719.35 442.77 732.15 432.93 744.71 423.86 757.01 415.74 769.07 408.68 780.86 402.72 792.4 397.83 809.21 392.36 814.74 390.8" fill="url(#uuunion-grad3)" filter="url(#uuunion-blur2)"></path></svg>