<svg xmlns="http://www.w3.org/2000/svg" version="1.1" xmlns:xlink="http://www.w3.org/1999/xlink" xmlns:svgjs="http://svgjs.dev/svgjs" viewBox="0 0 800 800"><defs><filter id="uuunion-blur" x="-100%" y="-100%" width="400%" height="400%" color-interpolation-filters="sRGB">
        <feGaussianBlur in="SourceGraphic" stdDeviation="7.5 0" result="blur"></feGaussianBlur>
        <feDropShadow stdDeviation="12.307692307692308" in="blur" dx="10" dy="10" flood-color="hsl(90, 69%, 72%)" flood-opacity="0.25" x="0%" y="0%" width="100%" height="100%"></feDropShadow>
      </filter><filter id="uuunion-blur2" x="-100%" y="-100%" width="400%" height="400%" color-interpolation-filters="sRGB">
        <feGaussianBlur in="SourceGraphic" stdDeviation="7.5 0" result="blur"></feGaussianBlur>
        <feDropShadow stdDeviation="12.307692307692308" in="blur" dx="-10" dy="-10" flood-color="hsl(90, 69%, 72%)" flood-opacity="0.25" x="0%" y="0%" width="100%" height="100%"></feDropShadow>
      </filter><linearGradient gradientTransform="rotate(0, 0.5, 0.5)" x1="50%" y1="0%" x2="50%" y2="100%" id="uuunion-grad"><stop stop-color="hsl(167, 72%, 60%)" offset="10%"></stop><stop stop-color="hsl(90, 69%, 72%)" offset="90%"></stop></linearGradient><linearGradient gradientTransform="rotate(135, 0.5, 0.5)" x1="50%" y1="0%" x2="50%" y2="100%" id="uuunion-grad2"><stop stop-color="hsl(167, 72%, 60%)" offset="25%"></stop><stop stop-color="hsl(90, 69%, 72%)" offset="100%"></stop></linearGradient><linearGradient gradientTransform="rotate(333, 0.5, 0.5)" x1="50%" y1="0%" x2="50%" y2="100%" id="uuunion-grad3"><stop stop-color="hsl(167, 72%, 60%)" offset="0%"></stop><stop stop-color="hsl(90, 69%, 72%)" offset="75%"></stop></linearGradient></defs><path d="M-79.49 -81.47Q-64.67 -78.61 -49.85 -75.9 -35.03 -73.62 -20.21 -72.01 -5.39 -71.25 9.42 -71.4 24.24 -72.46 39.06 -74.32 53.88 -76.77 68.7 -79.56 83.52 -82.4 98.34 -84.99 113.16 -87.05 127.98 -88.36 142.8 -88.79 157.62 -88.3 172.44 -86.93 187.26 -84.83 202.08 -82.22 216.9 -79.38 231.72 -76.6 246.54 -74.18 261.36 -72.37 276.18 -71.36 291 -71.27 305.82 -72.09 320.64 -73.75 335.46 -76.07 350.28 -78.8 365.1 -81.65 379.92 -84.33 394.74 -86.56 409.56 -88.09 424.38 -88.77 439.2 -88.52 454.02 -87.38 468.84 -85.46 483.66 -82.96 498.48 -80.15 513.3 -77.32 528.12 -74.78 542.94 -72.78 557.76 -71.55 572.58 -71.2 587.4 -71.79 602.22 -73.23 617.04 -75.39 631.86 -78.04 646.68 -80.89 661.5 -83.65 676.32 -86.02 691.14 -87.76 705.96 -88.68 720.78 -88.68 735.6 -87.77 750.42 -86.04 765.24 -83.67 780.06 -80.92 794.87 -78.06 809.69 -75.42 824.51 -73.25 839.33 -71.79 857.1 -63.76 856.01 -41.11 857.84 -25.89 865.09 -10.68 876 4.53 887.88 19.75 897.83 34.96 903.42 50.18 903.27 65.4 897.42 80.61 887.31 95.83 875.4 111.04 864.62 126.26 857.61 141.48 856.07 156.69 860.39 171.91 869.52 187.13 881.2 202.34 892.59 217.56 900.9 232.77 904.09 247.99 901.38 263.21 893.43 278.42 882.2 293.64 870.42 308.85 860.99 324.07 856.21 339.29 857.26 354.5 863.87 369.72 874.43 384.94 886.35 400.15 896.72 415.37 902.99 430.58 903.63 445.8 898.49 461.02 888.81 476.23 876.98 491.45 865.89 506.67 858.25 521.88 855.93 537.1 859.51 552.31 868.1 567.53 879.6 582.75 891.2 597.96 900.06 613.18 904 628.39 902.07 643.61 894.73 658.83 883.78 674.04 871.91 689.26 862.01 704.48 856.52 719.69 856.78 734.91 862.72 750.12 872.89 765.34 884.8 780.56 895.53 795.77 902.46 810.99 903.89 826.2 899.47 841.42 890.28 856.64 878.57 871.85 867.21 887.07 858.98 902.29 844.33 903.17 829.67 901.61 815.01 897.78 800.36 892.07 785.7 885.09 771.04 877.57 756.39 870.3 741.73 864.06 727.07 859.5 712.42 857.1 697.76 857.11 683.1 859.53 668.45 864.11 653.79 870.36 639.13 877.63 624.48 885.15 609.82 892.13 595.16 897.82 580.51 901.64 565.85 903.17 551.19 902.27 536.54 899.01 521.88 893.75 507.22 887.05 492.57 879.59 477.91 872.18 463.25 865.6 448.6 860.53 433.94 857.51 419.28 856.86 404.63 858.65 389.97 862.69 375.31 868.56 360.66 875.62 346 883.15 331.34 890.35 316.69 896.46 302.03 900.83 287.37 903 272.71 902.75 258.06 900.1 243.4 895.33 228.74 888.95 214.09 881.62 199.43 874.12 184.77 867.24 170.12 861.71 155.46 858.1 140.8 856.8 126.15 857.94 111.49 861.41 96.83 866.84 82.18 873.65 67.52 881.13 52.86 888.5 38.21 894.96 23.55 899.85 8.89 902.65 -5.75 903.06 -20.41 901.04 -35.07 896.8 -49.72 890.79 -64.38 883.64 -79.04 876.11 -79.41 861.15 -79.93 846.18 -80.46 831.22 -80.88 816.26 -81.09 801.3 -81.02 786.33 -80.7 771.37 -80.21 756.41 -79.67 741.45 -79.21 726.49 -78.94 711.52 -78.92 696.56 -79.17 681.6 -79.63 666.64 -80.17 651.67 -80.67 636.71 -81 621.75 -81.09 606.79 -80.91 591.82 -80.51 576.86 -79.98 561.9 -79.45 546.94 -79.06 531.98 -78.9 517.01 -79 502.05 -79.35 487.09 -79.86 472.13 -80.4 457.16 -80.84 442.2 -81.07 427.24 -81.04 412.28 -80.76 397.31 -80.29 382.35 -79.74 367.39 -79.26 352.43 -78.96 337.47 -78.91 322.5 -79.13 307.54 -79.56 292.58 -80.1 277.62 -80.61 262.65 -80.97 247.69 -81.09 232.73 -80.95 217.77 -80.57 202.8 -80.05 187.84 -79.52 172.88 -79.1 157.92 -78.9 142.96 -78.97 127.99 -79.29 113.03 -79.79 98.07 -80.33 83.11 -80.79 68.14 -81.06 53.18 -81.06 38.22 -80.81 23.26 -80.35 8.29 -79.81 -6.66 -79.31 -21.62 -78.98 -36.58 -78.9 -51.54 -79.08 -66.51 -79.49 -81.47" fill="url(#uuunion-grad)"></path><path d="M-79.49 -81.47Q-79.08 -66.51 -78.9 -51.54 -78.98 -36.58 -79.31 -21.62 -79.81 -6.66 -80.35 8.29 -80.81 23.26 -81.06 38.22 -81.06 53.18 -80.79 68.14 -80.33 83.11 -79.79 98.07 -79.29 113.03 -78.97 127.99 -78.9 142.96 -79.1 157.92 -79.52 172.88 -80.05 187.84 -80.57 202.8 -80.95 217.77 -81.09 232.73 -80.97 247.69 -80.61 262.65 -80.1 277.62 -79.56 292.58 -79.13 307.54 -78.91 322.5 -78.96 337.47 -79.26 352.43 -79.74 367.39 -80.29 382.35 -80.76 397.31 -70.58 400.78 -60.39 404.21 -50.21 407.44 -40.03 410.32 -29.85 412.71 -19.67 414.51 -0.58 415.89 2.72 415.98 15.18 408.87 27.51 400.67 39.68 391.54 51.7 381.7 63.6 371.41 75.4 360.97 87.13 350.7 98.86 340.88 110.63 331.76 122.49 323.55 134.49 316.38 146.7 310.3 159.13 305.28 171.83 301.23 184.81 297.97 198.06 295.27 211.58 292.87 225.33 290.48 239.25 287.82 253.3 284.64 267.39 280.72 281.45 275.9 295.4 270.09 309.14 263.26 322.6 255.48 335.72 246.87 348.43 237.61 360.7 227.93 372.5 218.08 383.85 208.33 394.77 198.94 405.3 190.12 415.52 182.05 425.52 174.86 435.4 168.6 445.28 163.26 455.28 158.75 465.52 154.95 476.12 151.66 487.18 148.65 498.78 145.7 511 142.55 523.87 138.99 537.41 134.82 551.58 129.91 566.35 124.17 581.62 117.57 597.3 110.15 613.24 102.02 629.31 93.32 645.35 84.23 661.18 74.98 676.66 65.78 691.63 56.84 705.95 48.36 719.54 40.49 732.3 33.33 744.19 26.95 755.23 21.33 765.43 16.43 774.89 12.12 783.7 8.25 792.01 4.65 800 1.12 787.88 -16.4 779.77 -33.93 778.35 -51.46 784.09 -68.99 795.09 -86.52 807.71 -104.05 817.78 -121.58 821.97 -139.11 806.67 -141.65 791.38 -144.03 776.08 -145.98 760.78 -147.31 745.49 -147.88 730.19 -147.63 714.89 -146.58 699.59 -144.85 684.3 -142.61 669 -140.1 653.7 -137.58 638.41 -135.31 623.11 -133.53 607.81 -132.42 592.52 -132.1 577.22 -132.6 561.92 -133.87 546.62 -135.78 531.33 -138.13 516.03 -140.67 500.73 -143.14 485.44 -145.28 470.14 -146.88 454.84 -147.75 439.54 -147.82 424.25 -147.08 408.95 -145.6 393.65 -143.53 378.36 -141.1 363.06 -138.55 347.76 -136.15 332.46 -134.15 317.17 -132.76 301.87 -132.13 286.57 -132.31 271.28 -133.29 255.98 -134.97 240.68 -137.17 225.38 -139.67 210.09 -142.2 194.79 -144.5 179.49 -146.33 164.2 -147.5 148.9 -147.89 133.6 -147.46 118.3 -146.25 103.01 -144.39 87.71 -142.07 72.41 -139.54 57.12 -137.05 41.82 -134.87 26.52 -133.22 11.22 -132.28 -4.06 -132.14 -19.36 -132.82 -34.66 -134.24 -49.95 -136.27 -65.25 -138.68 -80.55 -141.23 -95.85 -143.65 -111.14 -145.69 -126.44 -147.14 -136.22 -134.63 -118.03 -116.9 -108.24 -108.4 -98.53 -99.63 -88.95 -90.63 -79.49 -81.47" fill="url(#uuunion-grad2)" filter="url(#uuunion-blur)"></path><path d="M815.26 401.79Q825.44 405.18 835.63 408.32 845.81 411.07 855.99 413.3 866.17 414.9 876.35 415.81 886.54 415.96 896.72 415.37 902.99 430.58 903.63 445.8 898.49 461.02 888.81 476.23 876.98 491.45 865.89 506.67 858.25 521.88 855.93 537.1 859.51 552.31 868.1 567.53 879.6 582.75 891.2 597.96 900.06 613.18 904 628.39 902.07 643.61 894.73 658.83 883.78 674.04 871.91 689.26 862.01 704.48 856.52 719.69 856.78 734.91 862.72 750.12 872.89 765.34 884.8 780.56 895.53 795.77 902.46 810.99 903.89 826.2 899.47 841.42 890.28 856.64 878.57 871.85 867.21 887.07 858.98 902.29 845.53 903.19 832.08 902.03 818.63 898.92 805.18 894.12 791.73 888.07 778.28 881.3 764.83 874.41 751.38 868.02 737.93 862.69 724.48 858.91 711.03 856.99 697.58 857.12 684.13 859.29 670.67 863.29 657.22 868.78 643.77 875.27 630.32 882.17 616.87 888.89 603.42 894.81 589.97 899.41 576.52 902.29 563.07 903.19 549.62 902.03 536.17 898.9 522.72 894.1 509.27 888.04 495.82 881.27 482.37 874.39 468.92 868 455.47 862.68 442.02 858.9 428.56 856.99 415.11 857.13 401.66 859.3 388.21 863.31 374.76 868.8 361.31 875.29 347.86 882.2 334.41 888.91 320.96 894.83 307.51 899.43 294.06 902.3 280.61 903.19 267.16 902.02 253.71 898.89 240.26 894.08 226.81 888.02 213.36 881.25 199.9 874.36 186.45 867.98 173 862.66 159.55 858.88 146.1 856.99 132.65 857.13 119.2 859.31 105.75 863.33 92.3 868.83 78.85 875.32 65.4 882.23 51.95 888.93 38.5 894.85 25.05 899.44 4.97 897.67 -1.37 882.89 -1.05 872.74 -0.73 862.59 -0.44 852.44 -0.21 842.29 0.2 827.07 0.99 822 13.78 814.85 26.48 806.16 39.06 796.14 51.49 785.05 63.74 773.28 75.83 761.22 87.74 749.3 99.52 737.94 111.17 727.51 122.76 718.3 134.33 710.52 145.93 704.27 157.64 699.53 169.5 696.19 181.57 694.01 193.91 692.69 206.53 691.85 219.48 691.11 232.74 690.05 246.31 688.3 260.16 685.54 274.24 681.51 288.49 676.08 302.82 669.19 317.17 660.9 331.43 651.37 345.51 640.87 359.33 629.7 372.79 618.24 385.84 606.86 398.42 595.94 410.49 585.83 422.06 576.78 433.14 569.01 443.76 562.6 453.99 557.55 463.92 553.77 473.66 551.05 483.31 549.14 493.02 547.7 502.92 546.38 513.12 544.82 523.76 542.67 534.93 539.65 546.73 535.52 559.21 530.14 572.39 523.47 586.29 515.54 600.85 506.49 616.02 496.55 631.69 485.98 647.74 475.11 664.02 464.28 680.37 453.83 696.62 444.06 712.59 435.22 728.13 427.49 743.07 420.96 757.28 415.64 770.67 411.45 783.18 408.22 794.76 405.73 810.35 402.74 815.26 401.79" fill="url(#uuunion-grad3)" filter="url(#uuunion-blur2)"></path></svg>