<svg id="visual" viewBox="0 0 1255 570" width="1255" height="570" xmlns="http://www.w3.org/2000/svg" xmlns:xlink="http://www.w3.org/1999/xlink" version="1.1"><rect x="0" y="0" width="1255" height="570" fill="#BEDBC7"></rect><defs><linearGradient id="grad1_0" x1="54.6%" y1="0%" x2="100%" y2="100%"><stop offset="5.964912280701756%" stop-color="#4be141" stop-opacity="1"></stop><stop offset="94.03508771929825%" stop-color="#4be141" stop-opacity="1"></stop></linearGradient></defs><defs><linearGradient id="grad1_1" x1="54.6%" y1="0%" x2="100%" y2="100%"><stop offset="5.964912280701756%" stop-color="#4be141" stop-opacity="1"></stop><stop offset="94.03508771929825%" stop-color="#83e191" stop-opacity="1"></stop></linearGradient></defs><defs><linearGradient id="grad1_2" x1="54.6%" y1="0%" x2="100%" y2="100%"><stop offset="5.964912280701756%" stop-color="#bedbc7" stop-opacity="1"></stop><stop offset="94.03508771929825%" stop-color="#83e191" stop-opacity="1"></stop></linearGradient></defs><defs><linearGradient id="grad2_0" x1="0%" y1="0%" x2="45.4%" y2="100%"><stop offset="5.964912280701756%" stop-color="#4be141" stop-opacity="1"></stop><stop offset="94.03508771929825%" stop-color="#4be141" stop-opacity="1"></stop></linearGradient></defs><defs><linearGradient id="grad2_1" x1="0%" y1="0%" x2="45.4%" y2="100%"><stop offset="5.964912280701756%" stop-color="#83e191" stop-opacity="1"></stop><stop offset="94.03508771929825%" stop-color="#4be141" stop-opacity="1"></stop></linearGradient></defs><defs><linearGradient id="grad2_2" x1="0%" y1="0%" x2="45.4%" y2="100%"><stop offset="5.964912280701756%" stop-color="#83e191" stop-opacity="1"></stop><stop offset="94.03508771929825%" stop-color="#bedbc7" stop-opacity="1"></stop></linearGradient></defs><g transform="translate(1255, 0)"><path d="M0 456C-43.6 459.8 -87.3 463.7 -118 440.5C-148.8 417.2 -166.6 367 -197.5 342.1C-228.4 317.2 -272.4 317.7 -296.3 296.3C-320.2 274.8 -324.1 231.5 -344.7 199C-365.3 166.5 -402.7 145 -424 113.6C-445.4 82.3 -450.7 41.1 -456 0L0 0Z" fill="#9fdfae"></path><path d="M0 304C-29.1 306.6 -58.2 309.1 -78.7 293.6C-99.2 278.2 -111.1 244.6 -131.7 228.1C-152.3 211.5 -181.6 211.8 -197.5 197.5C-213.5 183.2 -216 154.3 -229.8 132.7C-243.5 111 -268.5 96.6 -282.7 75.7C-296.9 54.8 -300.5 27.4 -304 0L0 0Z" fill="#67e16e"></path><path d="M0 152C-14.5 153.3 -29.1 154.6 -39.3 146.8C-49.6 139.1 -55.5 122.3 -65.8 114C-76.1 105.7 -90.8 105.9 -98.8 98.8C-106.7 91.6 -108 77.2 -114.9 66.3C-121.8 55.5 -134.2 48.3 -141.3 37.9C-148.5 27.4 -150.2 13.7 -152 0L0 0Z" fill="#4be141"></path></g><g transform="translate(0, 570)"><path d="M0 -456C39.4 -450.8 78.7 -445.7 116.2 -433.7C153.7 -421.7 189.4 -402.9 219.5 -380.2C249.6 -357.5 274.2 -330.8 306.9 -306.9C339.6 -282.9 380.3 -261.7 394.9 -228C409.5 -194.3 397.9 -148.3 403.8 -108.2C409.6 -68.1 432.8 -34.1 456 0L0 0Z" fill="#9fdfae"></path><path d="M0 -304C26.2 -300.6 52.5 -297.1 77.5 -289.1C102.5 -281.1 126.3 -268.6 146.3 -253.5C166.4 -238.3 182.8 -220.6 204.6 -204.6C226.4 -188.6 253.5 -174.4 263.3 -152C273 -129.6 265.3 -98.8 269.2 -72.1C273.1 -45.4 288.5 -22.7 304 0L0 0Z" fill="#67e16e"></path><path d="M0 -152C13.1 -150.3 26.2 -148.6 38.7 -144.6C51.2 -140.6 63.1 -134.3 73.2 -126.7C83.2 -119.2 91.4 -110.3 102.3 -102.3C113.2 -94.3 126.8 -87.2 131.6 -76C136.5 -64.8 132.6 -49.4 134.6 -36.1C136.5 -22.7 144.3 -11.4 152 0L0 0Z" fill="#4be141"></path></g></svg>