<svg id="visual" viewBox="0 0 900 450" width="900" height="450" xmlns="http://www.w3.org/2000/svg" xmlns:xlink="http://www.w3.org/1999/xlink" version="1.1"><rect x="0" y="0" width="900" height="450" fill="#d0bbee"></rect><defs><linearGradient id="grad1_0" x1="50%" y1="0%" x2="100%" y2="100%"><stop offset="10%" stop-color="#1db954" stop-opacity="1"></stop><stop offset="90%" stop-color="#1db954" stop-opacity="1"></stop></linearGradient></defs><defs><linearGradient id="grad1_1" x1="50%" y1="0%" x2="100%" y2="100%"><stop offset="10%" stop-color="#1db954" stop-opacity="1"></stop><stop offset="90%" stop-color="#00c5b4" stop-opacity="1"></stop></linearGradient></defs><defs><linearGradient id="grad1_2" x1="50%" y1="0%" x2="100%" y2="100%"><stop offset="10%" stop-color="#00c6f4" stop-opacity="1"></stop><stop offset="90%" stop-color="#00c5b4" stop-opacity="1"></stop></linearGradient></defs><defs><linearGradient id="grad1_3" x1="50%" y1="0%" x2="100%" y2="100%"><stop offset="10%" stop-color="#00c6f4" stop-opacity="1"></stop><stop offset="90%" stop-color="#81c0ff" stop-opacity="1"></stop></linearGradient></defs><defs><linearGradient id="grad1_4" x1="50%" y1="0%" x2="100%" y2="100%"><stop offset="10%" stop-color="#d0bbee" stop-opacity="1"></stop><stop offset="90%" stop-color="#81c0ff" stop-opacity="1"></stop></linearGradient></defs><defs><linearGradient id="grad2_0" x1="0%" y1="0%" x2="50%" y2="100%"><stop offset="10%" stop-color="#1db954" stop-opacity="1"></stop><stop offset="90%" stop-color="#1db954" stop-opacity="1"></stop></linearGradient></defs><defs><linearGradient id="grad2_1" x1="0%" y1="0%" x2="50%" y2="100%"><stop offset="10%" stop-color="#00c5b4" stop-opacity="1"></stop><stop offset="90%" stop-color="#1db954" stop-opacity="1"></stop></linearGradient></defs><defs><linearGradient id="grad2_2" x1="0%" y1="0%" x2="50%" y2="100%"><stop offset="10%" stop-color="#00c5b4" stop-opacity="1"></stop><stop offset="90%" stop-color="#00c6f4" stop-opacity="1"></stop></linearGradient></defs><defs><linearGradient id="grad2_3" x1="0%" y1="0%" x2="50%" y2="100%"><stop offset="10%" stop-color="#81c0ff" stop-opacity="1"></stop><stop offset="90%" stop-color="#00c6f4" stop-opacity="1"></stop></linearGradient></defs><defs><linearGradient id="grad2_4" x1="0%" y1="0%" x2="50%" y2="100%"><stop offset="10%" stop-color="#81c0ff" stop-opacity="1"></stop><stop offset="90%" stop-color="#d0bbee" stop-opacity="1"></stop></linearGradient></defs><g transform="translate(900, 0)"><path d="M0 202.5C-18.7 203 -37.4 203.4 -52.4 195.6C-67.5 187.8 -78.9 171.7 -93.5 161.9C-108.1 152.2 -125.8 148.8 -138.6 138.6C-151.4 128.3 -159.2 111.2 -164.5 95C-169.9 78.8 -172.8 63.6 -178.7 47.9C-184.6 32.2 -193.6 16.1 -202.5 0L0 0Z" fill="#b1bcfb"></path><path d="M0 162C-14.9 162.4 -29.9 162.7 -41.9 156.5C-54 150.2 -63.1 137.3 -74.8 129.6C-86.5 121.8 -100.7 119.1 -110.9 110.9C-121.1 102.7 -127.4 89 -131.6 76C-135.9 63 -138.2 50.8 -143 38.3C-147.7 25.8 -154.8 12.9 -162 0L0 0Z" fill="#29c4ff"></path><path d="M0 121.5C-11.2 121.8 -22.4 122.1 -31.4 117.4C-40.5 112.7 -47.3 103 -56.1 97.2C-64.9 91.3 -75.5 89.3 -83.2 83.2C-90.8 77 -95.5 66.7 -98.7 57C-101.9 47.3 -103.7 38.1 -107.2 28.7C-110.8 19.3 -116.1 9.7 -121.5 0L0 0Z" fill="#00c7d9"></path><path d="M0 81C-7.5 81.2 -14.9 81.4 -21 78.2C-27 75.1 -31.6 68.7 -37.4 64.8C-43.2 60.9 -50.3 59.5 -55.4 55.4C-60.5 51.3 -63.7 44.5 -65.8 38C-68 31.5 -69.1 25.4 -71.5 19.2C-73.8 12.9 -77.4 6.4 -81 0L0 0Z" fill="#00c086"></path><path d="M0 40.5C-3.7 40.6 -7.5 40.7 -10.5 39.1C-13.5 37.6 -15.8 34.3 -18.7 32.4C-21.6 30.4 -25.2 29.8 -27.7 27.7C-30.3 25.7 -31.8 22.2 -32.9 19C-34 15.8 -34.6 12.7 -35.7 9.6C-36.9 6.4 -38.7 3.2 -40.5 0L0 0Z" fill="#1db954"></path></g><g transform="translate(0, 450)"><path d="M0 -202.5C18.6 -202.9 37.3 -203.2 52.4 -195.6C67.5 -188 79.1 -172.3 94 -162.8C108.9 -153.3 127 -150 139.3 -139.3C151.6 -128.6 158.1 -110.5 162.8 -94C167.5 -77.5 170.4 -62.8 176.8 -47.4C183.1 -32 192.8 -16 202.5 0L0 0Z" fill="#b1bcfb"></path><path d="M0 -162C14.9 -162.3 29.8 -162.6 41.9 -156.5C54 -150.4 63.3 -137.8 75.2 -130.3C87.1 -122.7 101.6 -120 111.4 -111.4C121.3 -102.9 126.5 -88.4 130.3 -75.2C134 -62 136.4 -50.2 141.4 -37.9C146.5 -25.6 154.2 -12.8 162 0L0 0Z" fill="#29c4ff"></path><path d="M0 -121.5C11.2 -121.7 22.4 -121.9 31.4 -117.4C40.5 -112.8 47.5 -103.4 56.4 -97.7C65.3 -92 76.2 -90 83.6 -83.6C91 -77.1 94.9 -66.3 97.7 -56.4C100.5 -46.5 102.3 -37.7 106.1 -28.4C109.8 -19.2 115.7 -9.6 121.5 0L0 0Z" fill="#00c7d9"></path><path d="M0 -81C7.5 -81.1 14.9 -81.3 21 -78.2C27 -75.2 31.7 -68.9 37.6 -65.1C43.5 -61.3 50.8 -60 55.7 -55.7C60.6 -51.4 63.2 -44.2 65.1 -37.6C67 -31 68.2 -25.1 70.7 -18.9C73.2 -12.8 77.1 -6.4 81 0L0 0Z" fill="#00c086"></path><path d="M0 -40.5C3.7 -40.6 7.5 -40.6 10.5 -39.1C13.5 -37.6 15.8 -34.5 18.8 -32.6C21.8 -30.7 25.4 -30 27.9 -27.9C30.3 -25.7 31.6 -22.1 32.6 -18.8C33.5 -15.5 34.1 -12.6 35.4 -9.5C36.6 -6.4 38.6 -3.2 40.5 0L0 0Z" fill="#1db954"></path></g></svg>