<svg id="visual" viewBox="0 0 900 500" width="900" height="500" xmlns="http://www.w3.org/2000/svg" xmlns:xlink="http://www.w3.org/1999/xlink" version="1.1"><rect x="0" y="0" width="900" height="500" fill="#29462b"></rect><defs><linearGradient id="grad1_0" x1="44.4%" y1="0%" x2="100%" y2="100%"><stop offset="13.999999999999998%" stop-color="#1db954" stop-opacity="1"></stop><stop offset="86%" stop-color="#1db954" stop-opacity="1"></stop></linearGradient></defs><defs><linearGradient id="grad1_1" x1="44.4%" y1="0%" x2="100%" y2="100%"><stop offset="13.999999999999998%" stop-color="#1db954" stop-opacity="1"></stop><stop offset="86%" stop-color="#2b9b49" stop-opacity="1"></stop></linearGradient></defs><defs><linearGradient id="grad1_2" x1="44.4%" y1="0%" x2="100%" y2="100%"><stop offset="13.999999999999998%" stop-color="#2f7d3f" stop-opacity="1"></stop><stop offset="86%" stop-color="#2b9b49" stop-opacity="1"></stop></linearGradient></defs><defs><linearGradient id="grad1_3" x1="44.4%" y1="0%" x2="100%" y2="100%"><stop offset="13.999999999999998%" stop-color="#2f7d3f" stop-opacity="1"></stop><stop offset="86%" stop-color="#2e6135" stop-opacity="1"></stop></linearGradient></defs><defs><linearGradient id="grad1_4" x1="44.4%" y1="0%" x2="100%" y2="100%"><stop offset="13.999999999999998%" stop-color="#29462b" stop-opacity="1"></stop><stop offset="86%" stop-color="#2e6135" stop-opacity="1"></stop></linearGradient></defs><defs><linearGradient id="grad2_0" x1="0%" y1="0%" x2="55.6%" y2="100%"><stop offset="13.999999999999998%" stop-color="#1db954" stop-opacity="1"></stop><stop offset="86%" stop-color="#1db954" stop-opacity="1"></stop></linearGradient></defs><defs><linearGradient id="grad2_1" x1="0%" y1="0%" x2="55.6%" y2="100%"><stop offset="13.999999999999998%" stop-color="#2b9b49" stop-opacity="1"></stop><stop offset="86%" stop-color="#1db954" stop-opacity="1"></stop></linearGradient></defs><defs><linearGradient id="grad2_2" x1="0%" y1="0%" x2="55.6%" y2="100%"><stop offset="13.999999999999998%" stop-color="#2b9b49" stop-opacity="1"></stop><stop offset="86%" stop-color="#2f7d3f" stop-opacity="1"></stop></linearGradient></defs><defs><linearGradient id="grad2_3" x1="0%" y1="0%" x2="55.6%" y2="100%"><stop offset="13.999999999999998%" stop-color="#2e6135" stop-opacity="1"></stop><stop offset="86%" stop-color="#2f7d3f" stop-opacity="1"></stop></linearGradient></defs><defs><linearGradient id="grad2_4" x1="0%" y1="0%" x2="55.6%" y2="100%"><stop offset="13.999999999999998%" stop-color="#2e6135" stop-opacity="1"></stop><stop offset="86%" stop-color="#29462b" stop-opacity="1"></stop></linearGradient></defs><g transform="translate(900, 0)"><path d="M0 225C-19.8 223.8 -39.6 222.5 -58.2 217.3C-76.8 212.2 -94.2 203.1 -111.5 193.1C-128.8 183.2 -146.1 172.4 -156.3 156.3C-166.4 140.2 -169.5 118.8 -174.9 101C-180.4 83.2 -188.3 69 -197 52.8C-205.8 36.6 -215.4 18.3 -225 0L0 0Z" fill="#2c5330"></path><path d="M0 180C-15.9 179 -31.7 178 -46.6 173.9C-61.5 169.7 -75.3 162.5 -89.2 154.5C-103.1 146.5 -116.9 137.9 -125 125C-133.1 112.1 -135.6 95 -139.9 80.8C-144.3 66.6 -150.6 55.2 -157.6 42.2C-164.6 29.3 -172.3 14.6 -180 0L0 0Z" fill="#2f6f3a"></path><path d="M0 135C-11.9 134.3 -23.8 133.5 -34.9 130.4C-46.1 127.3 -56.5 121.8 -66.9 115.9C-77.3 109.9 -87.7 103.4 -93.8 93.8C-99.9 84.1 -101.7 71.3 -105 60.6C-108.2 49.9 -113 41.4 -118.2 31.7C-123.5 21.9 -129.2 11 -135 0L0 0Z" fill="#2d8c44"></path><path d="M0 90C-7.9 89.5 -15.9 89 -23.3 86.9C-30.7 84.9 -37.7 81.2 -44.6 77.2C-51.5 73.3 -58.4 68.9 -62.5 62.5C-66.6 56.1 -67.8 47.5 -70 40.4C-72.2 33.3 -75.3 27.6 -78.8 21.1C-82.3 14.6 -86.2 7.3 -90 0L0 0Z" fill="#26aa4e"></path><path d="M0 45C-4 44.8 -7.9 44.5 -11.6 43.5C-15.4 42.4 -18.8 40.6 -22.3 38.6C-25.8 36.6 -29.2 34.5 -31.3 31.3C-33.3 28 -33.9 23.8 -35 20.2C-36.1 16.6 -37.7 13.8 -39.4 10.6C-41.2 7.3 -43.1 3.7 -45 0L0 0Z" fill="#1db954"></path></g><g transform="translate(0, 500)"><path d="M0 -225C20 -221.6 40 -218.2 55.9 -208.6C71.9 -199.1 83.8 -183.4 101.5 -175.8C119.2 -168.2 142.7 -168.8 159.1 -159.1C175.5 -149.4 184.9 -129.4 191.4 -110.5C197.9 -91.6 201.6 -73.6 206.7 -55.4C211.8 -37.1 218.4 -18.6 225 0L0 0Z" fill="#2c5330"></path><path d="M0 -180C16 -177.3 32 -174.6 44.7 -166.9C57.5 -159.3 67 -146.7 81.2 -140.6C95.4 -134.6 114.1 -135 127.3 -127.3C140.4 -119.5 147.9 -103.6 153.1 -88.4C158.3 -73.2 161.3 -58.9 165.4 -44.3C169.5 -29.7 174.7 -14.9 180 0L0 0Z" fill="#2f6f3a"></path><path d="M0 -135C12 -133 24 -130.9 33.5 -125.2C43.1 -119.5 50.3 -110 60.9 -105.5C71.5 -100.9 85.6 -101.3 95.5 -95.5C105.3 -89.6 110.9 -77.7 114.8 -66.3C118.7 -54.9 120.9 -44.2 124 -33.2C127.1 -22.3 131.1 -11.1 135 0L0 0Z" fill="#2d8c44"></path><path d="M0 -90C8 -88.6 16 -87.3 22.4 -83.5C28.7 -79.6 33.5 -73.4 40.6 -70.3C47.7 -67.3 57.1 -67.5 63.6 -63.6C70.2 -59.8 74 -51.8 76.6 -44.2C79.2 -36.6 80.6 -29.5 82.7 -22.2C84.7 -14.9 87.4 -7.4 90 0L0 0Z" fill="#26aa4e"></path><path d="M0 -45C4 -44.3 8 -43.6 11.2 -41.7C14.4 -39.8 16.8 -36.7 20.3 -35.2C23.8 -33.6 28.5 -33.8 31.8 -31.8C35.1 -29.9 37 -25.9 38.3 -22.1C39.6 -18.3 40.3 -14.7 41.3 -11.1C42.4 -7.4 43.7 -3.7 45 0L0 0Z" fill="#1db954"></path></g></svg>