<svg id="visual" viewBox="0 0 900 450" width="900" height="450" xmlns="http://www.w3.org/2000/svg" xmlns:xlink="http://www.w3.org/1999/xlink" version="1.1"><rect x="0" y="0" width="900" height="450" fill="#191414"></rect><defs><linearGradient id="grad1_0" x1="50%" y1="0%" x2="100%" y2="100%"><stop offset="10%" stop-color="#191414" stop-opacity="1"></stop><stop offset="90%" stop-color="#191414" stop-opacity="1"></stop></linearGradient></defs><defs><linearGradient id="grad2_0" x1="0%" y1="0%" x2="50%" y2="100%"><stop offset="10%" stop-color="#191414" stop-opacity="1"></stop><stop offset="90%" stop-color="#191414" stop-opacity="1"></stop></linearGradient></defs><g transform="translate(900, 0)"><path d="M0 225C-28.2 218.6 -56.4 212.3 -83.8 202.3C-111.2 192.4 -137.7 178.9 -159.1 159.1C-180.5 139.3 -196.8 113.3 -206.9 85.7C-217.1 58.2 -221 29.1 -225 0L0 0Z" fill="#1db954"></path></g><g transform="translate(0, 450)"><path d="M0 -225C30 -222.2 59.9 -219.5 86.1 -207.9C112.3 -196.3 134.7 -175.9 154.1 -154.1C173.6 -132.4 190.1 -109.3 201.4 -83.4C212.7 -57.5 218.9 -28.8 225 0L0 0Z" fill="#1db954"></path></g></svg>