<svg xmlns="http://www.w3.org/2000/svg" version="1.1" xmlns:xlink="http://www.w3.org/1999/xlink" xmlns:svgjs="http://svgjs.dev/svgjs" viewBox="0 0 800 800"><symbol id="SvgjsSymbol1009"><polygon points="0,6.25 12.5,0 25,6.25 12.5,12.5"></polygon></symbol><symbol id="SvgjsSymbol1010"><polygon points="0,6.25 12.5,12.5 12.5,25 0,18.75"></polygon></symbol><symbol id="SvgjsSymbol1011"><polygon points="12.5,12.5 25,6.25 25,18.75 12.5,25"></polygon></symbol><g shape-rendering="crispEdges"><g><use xlink:href="#SvgjsSymbol1009" x="100" y="225" fill="hsl(116, 82%, 45%)"></use><use xlink:href="#SvgjsSymbol1010" x="100" y="225" fill="#6cff53"></use><use xlink:href="#SvgjsSymbol1011" x="100" y="225" fill="#009e00"></use></g><g><use xlink:href="#SvgjsSymbol1009" x="100" y="337.5" fill="hsl(116, 82%, 45%)"></use><use xlink:href="#SvgjsSymbol1010" x="100" y="337.5" fill="#6cff53"></use><use xlink:href="#SvgjsSymbol1011" x="100" y="337.5" fill="#009e00"></use></g><g><use xlink:href="#SvgjsSymbol1009" x="75" y="487.5" fill="hsl(116, 82%, 45%)"></use><use xlink:href="#SvgjsSymbol1010" x="75" y="487.5" fill="#6cff53"></use><use xlink:href="#SvgjsSymbol1011" x="75" y="487.5" fill="#009e00"></use></g><g><use xlink:href="#SvgjsSymbol1009" x="12.5" y="706.25" fill="hsl(116, 82%, 45%)"></use><use xlink:href="#SvgjsSymbol1010" x="12.5" y="706.25" fill="#6cff53"></use><use xlink:href="#SvgjsSymbol1011" x="12.5" y="706.25" fill="#009e00"></use></g><g><use xlink:href="#SvgjsSymbol1009" x="143.75" y="650" fill="hsl(116, 82%, 45%)"></use><use xlink:href="#SvgjsSymbol1010" x="143.75" y="650" fill="#6cff53"></use><use xlink:href="#SvgjsSymbol1011" x="143.75" y="650" fill="#009e00"></use></g><g><use xlink:href="#SvgjsSymbol1009" x="12.5" y="581.25" fill="hsl(116, 82%, 45%)"></use><use xlink:href="#SvgjsSymbol1010" x="12.5" y="581.25" fill="#6cff53"></use><use xlink:href="#SvgjsSymbol1011" x="12.5" y="581.25" fill="#009e00"></use></g><g><use xlink:href="#SvgjsSymbol1009" x="31.25" y="156.25" fill="hsl(116, 82%, 45%)"></use><use xlink:href="#SvgjsSymbol1010" x="31.25" y="156.25" fill="#6cff53"></use><use xlink:href="#SvgjsSymbol1011" x="31.25" y="156.25" fill="#009e00"></use></g><g><use xlink:href="#SvgjsSymbol1009" x="25" y="43.75" fill="hsl(116, 82%, 45%)"></use><use xlink:href="#SvgjsSymbol1010" x="25" y="43.75" fill="#6cff53"></use><use xlink:href="#SvgjsSymbol1011" x="25" y="43.75" fill="#009e00"></use></g><g><use xlink:href="#SvgjsSymbol1009" x="118.75" y="18.75" fill="hsl(116, 82%, 45%)"></use><use xlink:href="#SvgjsSymbol1010" x="118.75" y="18.75" fill="#6cff53"></use><use xlink:href="#SvgjsSymbol1011" x="118.75" y="18.75" fill="#009e00"></use></g><g><use xlink:href="#SvgjsSymbol1009" x="37.5" y="293.75" fill="hsl(116, 82%, 45%)"></use><use xlink:href="#SvgjsSymbol1010" x="37.5" y="293.75" fill="#6cff53"></use><use xlink:href="#SvgjsSymbol1011" x="37.5" y="293.75" fill="#009e00"></use></g><g><use xlink:href="#SvgjsSymbol1009" x="187.5" y="431.25" fill="hsl(116, 82%, 45%)"></use><use xlink:href="#SvgjsSymbol1010" x="187.5" y="431.25" fill="#6cff53"></use><use xlink:href="#SvgjsSymbol1011" x="187.5" y="431.25" fill="#009e00"></use></g><g><use xlink:href="#SvgjsSymbol1009" x="181.25" y="256.25" fill="hsl(116, 82%, 45%)"></use><use xlink:href="#SvgjsSymbol1010" x="181.25" y="256.25" fill="#6cff53"></use><use xlink:href="#SvgjsSymbol1011" x="181.25" y="256.25" fill="#009e00"></use></g><g><use xlink:href="#SvgjsSymbol1009" x="718.75" y="750" fill="hsl(116, 82%, 45%)"></use><use xlink:href="#SvgjsSymbol1010" x="718.75" y="750" fill="#6cff53"></use><use xlink:href="#SvgjsSymbol1011" x="718.75" y="750" fill="#009e00"></use></g><g><use xlink:href="#SvgjsSymbol1009" x="706.25" y="612.5" fill="hsl(116, 82%, 45%)"></use><use xlink:href="#SvgjsSymbol1010" x="706.25" y="612.5" fill="#6cff53"></use><use xlink:href="#SvgjsSymbol1011" x="706.25" y="612.5" fill="#009e00"></use></g><g><use xlink:href="#SvgjsSymbol1009" x="662.5" y="475" fill="hsl(116, 82%, 45%)"></use><use xlink:href="#SvgjsSymbol1010" x="662.5" y="475" fill="#6cff53"></use><use xlink:href="#SvgjsSymbol1011" x="662.5" y="475" fill="#009e00"></use></g><g><use xlink:href="#SvgjsSymbol1009" x="637.5" y="25" fill="hsl(116, 82%, 45%)"></use><use xlink:href="#SvgjsSymbol1010" x="637.5" y="25" fill="#6cff53"></use><use xlink:href="#SvgjsSymbol1011" x="637.5" y="25" fill="#009e00"></use></g><g><use xlink:href="#SvgjsSymbol1009" x="768.75" y="50" fill="hsl(116, 82%, 45%)"></use><use xlink:href="#SvgjsSymbol1010" x="768.75" y="50" fill="#6cff53"></use><use xlink:href="#SvgjsSymbol1011" x="768.75" y="50" fill="#009e00"></use></g><g><use xlink:href="#SvgjsSymbol1009" x="681.25" y="150" fill="hsl(116, 82%, 45%)"></use><use xlink:href="#SvgjsSymbol1010" x="681.25" y="150" fill="#6cff53"></use><use xlink:href="#SvgjsSymbol1011" x="681.25" y="150" fill="#009e00"></use></g><g><use xlink:href="#SvgjsSymbol1009" x="606.25" y="175" fill="hsl(116, 82%, 45%)"></use><use xlink:href="#SvgjsSymbol1010" x="606.25" y="175" fill="#6cff53"></use><use xlink:href="#SvgjsSymbol1011" x="606.25" y="175" fill="#009e00"></use></g><g><use xlink:href="#SvgjsSymbol1009" x="725" y="325" fill="hsl(116, 82%, 45%)"></use><use xlink:href="#SvgjsSymbol1010" x="725" y="325" fill="#6cff53"></use><use xlink:href="#SvgjsSymbol1011" x="725" y="325" fill="#009e00"></use></g><g><use xlink:href="#SvgjsSymbol1009" x="593.75" y="362.5" fill="hsl(116, 82%, 45%)"></use><use xlink:href="#SvgjsSymbol1010" x="593.75" y="362.5" fill="#6cff53"></use><use xlink:href="#SvgjsSymbol1011" x="593.75" y="362.5" fill="#009e00"></use></g><g><use xlink:href="#SvgjsSymbol1009" x="756.25" y="462.5" fill="hsl(116, 82%, 45%)"></use><use xlink:href="#SvgjsSymbol1010" x="756.25" y="462.5" fill="#6cff53"></use><use xlink:href="#SvgjsSymbol1011" x="756.25" y="462.5" fill="#009e00"></use></g><g><use xlink:href="#SvgjsSymbol1009" x="587.5" y="525" fill="hsl(116, 82%, 45%)"></use><use xlink:href="#SvgjsSymbol1010" x="587.5" y="525" fill="#6cff53"></use><use xlink:href="#SvgjsSymbol1011" x="587.5" y="525" fill="#009e00"></use></g><g><use xlink:href="#SvgjsSymbol1009" x="575" y="762.5" fill="hsl(116, 82%, 45%)"></use><use xlink:href="#SvgjsSymbol1010" x="575" y="762.5" fill="#6cff53"></use><use xlink:href="#SvgjsSymbol1011" x="575" y="762.5" fill="#009e00"></use></g><g><use xlink:href="#SvgjsSymbol1009" x="768.75" y="675" fill="hsl(116, 82%, 45%)"></use><use xlink:href="#SvgjsSymbol1010" x="768.75" y="675" fill="#6cff53"></use><use xlink:href="#SvgjsSymbol1011" x="768.75" y="675" fill="#009e00"></use></g><g><use xlink:href="#SvgjsSymbol1009" x="68.75" y="125" fill="hsl(293, 90%, 51%)"></use><use xlink:href="#SvgjsSymbol1010" x="68.75" y="125" fill="#ff5fff"></use><use xlink:href="#SvgjsSymbol1011" x="68.75" y="125" fill="#a200bf"></use></g><g><use xlink:href="#SvgjsSymbol1009" x="143.75" y="162.5" fill="hsl(293, 90%, 51%)"></use><use xlink:href="#SvgjsSymbol1010" x="143.75" y="162.5" fill="#ff5fff"></use><use xlink:href="#SvgjsSymbol1011" x="143.75" y="162.5" fill="#a200bf"></use></g><g><use xlink:href="#SvgjsSymbol1009" x="50" y="368.75" fill="hsl(293, 90%, 51%)"></use><use xlink:href="#SvgjsSymbol1010" x="50" y="368.75" fill="#ff5fff"></use><use xlink:href="#SvgjsSymbol1011" x="50" y="368.75" fill="#a200bf"></use></g><g><use xlink:href="#SvgjsSymbol1009" x="175" y="381.25" fill="hsl(293, 90%, 51%)"></use><use xlink:href="#SvgjsSymbol1010" x="175" y="381.25" fill="#ff5fff"></use><use xlink:href="#SvgjsSymbol1011" x="175" y="381.25" fill="#a200bf"></use></g><g><use xlink:href="#SvgjsSymbol1009" x="150" y="500" fill="hsl(293, 90%, 51%)"></use><use xlink:href="#SvgjsSymbol1010" x="150" y="500" fill="#ff5fff"></use><use xlink:href="#SvgjsSymbol1011" x="150" y="500" fill="#a200bf"></use></g><g><use xlink:href="#SvgjsSymbol1009" x="87.5" y="631.25" fill="hsl(293, 90%, 51%)"></use><use xlink:href="#SvgjsSymbol1010" x="87.5" y="631.25" fill="#ff5fff"></use><use xlink:href="#SvgjsSymbol1011" x="87.5" y="631.25" fill="#a200bf"></use></g><g><use xlink:href="#SvgjsSymbol1009" x="175" y="718.75" fill="hsl(293, 90%, 51%)"></use><use xlink:href="#SvgjsSymbol1010" x="175" y="718.75" fill="#ff5fff"></use><use xlink:href="#SvgjsSymbol1011" x="175" y="718.75" fill="#a200bf"></use></g><g><use xlink:href="#SvgjsSymbol1009" x="650" y="300" fill="hsl(293, 90%, 51%)"></use><use xlink:href="#SvgjsSymbol1010" x="650" y="300" fill="#ff5fff"></use><use xlink:href="#SvgjsSymbol1011" x="650" y="300" fill="#a200bf"></use></g><g><use xlink:href="#SvgjsSymbol1009" x="600" y="137.5" fill="hsl(293, 90%, 51%)"></use><use xlink:href="#SvgjsSymbol1010" x="600" y="137.5" fill="#ff5fff"></use><use xlink:href="#SvgjsSymbol1011" x="600" y="137.5" fill="#a200bf"></use></g><g><use xlink:href="#SvgjsSymbol1009" x="737.5" y="93.75" fill="hsl(293, 90%, 51%)"></use><use xlink:href="#SvgjsSymbol1010" x="737.5" y="93.75" fill="#ff5fff"></use><use xlink:href="#SvgjsSymbol1011" x="737.5" y="93.75" fill="#a200bf"></use></g><g><use xlink:href="#SvgjsSymbol1009" x="681.25" y="25" fill="hsl(293, 90%, 51%)"></use><use xlink:href="#SvgjsSymbol1010" x="681.25" y="25" fill="#ff5fff"></use><use xlink:href="#SvgjsSymbol1011" x="681.25" y="25" fill="#a200bf"></use></g><g><use xlink:href="#SvgjsSymbol1009" x="731.25" y="287.5" fill="hsl(293, 90%, 51%)"></use><use xlink:href="#SvgjsSymbol1010" x="731.25" y="287.5" fill="#ff5fff"></use><use xlink:href="#SvgjsSymbol1011" x="731.25" y="287.5" fill="#a200bf"></use></g><g><use xlink:href="#SvgjsSymbol1009" x="568.75" y="450" fill="hsl(293, 90%, 51%)"></use><use xlink:href="#SvgjsSymbol1010" x="568.75" y="450" fill="#ff5fff"></use><use xlink:href="#SvgjsSymbol1011" x="568.75" y="450" fill="#a200bf"></use></g><g><use xlink:href="#SvgjsSymbol1009" x="718.75" y="556.25" fill="hsl(293, 90%, 51%)"></use><use xlink:href="#SvgjsSymbol1010" x="718.75" y="556.25" fill="#ff5fff"></use><use xlink:href="#SvgjsSymbol1011" x="718.75" y="556.25" fill="#a200bf"></use></g><g><use xlink:href="#SvgjsSymbol1009" x="612.5" y="625" fill="hsl(293, 90%, 51%)"></use><use xlink:href="#SvgjsSymbol1010" x="612.5" y="625" fill="#ff5fff"></use><use xlink:href="#SvgjsSymbol1011" x="612.5" y="625" fill="#a200bf"></use></g><g><use xlink:href="#SvgjsSymbol1009" x="668.75" y="718.75" fill="hsl(293, 90%, 51%)"></use><use xlink:href="#SvgjsSymbol1010" x="668.75" y="718.75" fill="#ff5fff"></use><use xlink:href="#SvgjsSymbol1011" x="668.75" y="718.75" fill="#a200bf"></use></g></g><g></g></svg>