<svg xmlns="http://www.w3.org/2000/svg" version="1.1" xmlns:xlink="http://www.w3.org/1999/xlink" xmlns:svgjs="http://svgjs.dev/svgjs" viewBox="0 0 640 800"><g shape-rendering="crispEdges"><g><use xlink:href="#SvgjsSymbol1003" x="550" y="68.75" fill="hsl(286, 100%, 51%)"></use><use xlink:href="#SvgjsSymbol1004" x="550" y="68.75" fill="#fd59ff"></use><use xlink:href="#SvgjsSymbol1005" x="550" y="68.75" fill="#8e00cb"></use></g><g><use xlink:href="#SvgjsSymbol1003" x="581.25" y="181.25" fill="hsl(286, 100%, 51%)"></use><use xlink:href="#SvgjsSymbol1004" x="581.25" y="181.25" fill="#fd59ff"></use><use xlink:href="#SvgjsSymbol1005" x="581.25" y="181.25" fill="#8e00cb"></use></g><g><use xlink:href="#SvgjsSymbol1003" x="512.5" y="243.75" fill="hsl(286, 100%, 51%)"></use><use xlink:href="#SvgjsSymbol1004" x="512.5" y="243.75" fill="#fd59ff"></use><use xlink:href="#SvgjsSymbol1005" x="512.5" y="243.75" fill="#8e00cb"></use></g><g><use xlink:href="#SvgjsSymbol1003" x="543.75" y="350" fill="hsl(286, 100%, 51%)"></use><use xlink:href="#SvgjsSymbol1004" x="543.75" y="350" fill="#fd59ff"></use><use xlink:href="#SvgjsSymbol1005" x="543.75" y="350" fill="#8e00cb"></use></g><g><use xlink:href="#SvgjsSymbol1003" x="575" y="487.5" fill="hsl(286, 100%, 51%)"></use><use xlink:href="#SvgjsSymbol1004" x="575" y="487.5" fill="#fd59ff"></use><use xlink:href="#SvgjsSymbol1005" x="575" y="487.5" fill="#8e00cb"></use></g><g><use xlink:href="#SvgjsSymbol1003" x="525" y="600" fill="hsl(286, 100%, 51%)"></use><use xlink:href="#SvgjsSymbol1004" x="525" y="600" fill="#fd59ff"></use><use xlink:href="#SvgjsSymbol1005" x="525" y="600" fill="#8e00cb"></use></g><g><use xlink:href="#SvgjsSymbol1003" x="556.25" y="675" fill="hsl(286, 100%, 51%)"></use><use xlink:href="#SvgjsSymbol1004" x="556.25" y="675" fill="#fd59ff"></use><use xlink:href="#SvgjsSymbol1005" x="556.25" y="675" fill="#8e00cb"></use></g><g><use xlink:href="#SvgjsSymbol1003" x="500" y="768.75" fill="hsl(286, 100%, 51%)"></use><use xlink:href="#SvgjsSymbol1004" x="500" y="768.75" fill="#fd59ff"></use><use xlink:href="#SvgjsSymbol1005" x="500" y="768.75" fill="#8e00cb"></use></g><g><use xlink:href="#SvgjsSymbol1003" x="456.25" y="650" fill="hsl(286, 100%, 51%)"></use><use xlink:href="#SvgjsSymbol1004" x="456.25" y="650" fill="#fd59ff"></use><use xlink:href="#SvgjsSymbol1005" x="456.25" y="650" fill="#8e00cb"></use></g><g><use xlink:href="#SvgjsSymbol1003" x="587.5" y="612.5" fill="hsl(286, 100%, 51%)"></use><use xlink:href="#SvgjsSymbol1004" x="587.5" y="612.5" fill="#fd59ff"></use><use xlink:href="#SvgjsSymbol1005" x="587.5" y="612.5" fill="#8e00cb"></use></g><g><use xlink:href="#SvgjsSymbol1003" x="512.5" y="468.75" fill="hsl(286, 100%, 51%)"></use><use xlink:href="#SvgjsSymbol1004" x="512.5" y="468.75" fill="#fd59ff"></use><use xlink:href="#SvgjsSymbol1005" x="512.5" y="468.75" fill="#8e00cb"></use></g><g><use xlink:href="#SvgjsSymbol1003" x="593.75" y="275" fill="hsl(286, 100%, 51%)"></use><use xlink:href="#SvgjsSymbol1004" x="593.75" y="275" fill="#fd59ff"></use><use xlink:href="#SvgjsSymbol1005" x="593.75" y="275" fill="#8e00cb"></use></g><g><use xlink:href="#SvgjsSymbol1003" x="425" y="337.5" fill="hsl(286, 100%, 51%)"></use><use xlink:href="#SvgjsSymbol1004" x="425" y="337.5" fill="#fd59ff"></use><use xlink:href="#SvgjsSymbol1005" x="425" y="337.5" fill="#8e00cb"></use></g><g><use xlink:href="#SvgjsSymbol1003" x="481.25" y="156.25" fill="hsl(286, 100%, 51%)"></use><use xlink:href="#SvgjsSymbol1004" x="481.25" y="156.25" fill="#fd59ff"></use><use xlink:href="#SvgjsSymbol1005" x="481.25" y="156.25" fill="#8e00cb"></use></g><g><use xlink:href="#SvgjsSymbol1003" x="606.25" y="106.25" fill="hsl(286, 100%, 51%)"></use><use xlink:href="#SvgjsSymbol1004" x="606.25" y="106.25" fill="#fd59ff"></use><use xlink:href="#SvgjsSymbol1005" x="606.25" y="106.25" fill="#8e00cb"></use></g><g><use xlink:href="#SvgjsSymbol1003" x="118.75" y="50" fill="hsl(286, 100%, 51%)"></use><use xlink:href="#SvgjsSymbol1004" x="118.75" y="50" fill="#fd59ff"></use><use xlink:href="#SvgjsSymbol1005" x="118.75" y="50" fill="#8e00cb"></use></g><g><use xlink:href="#SvgjsSymbol1003" x="68.75" y="62.5" fill="hsl(286, 100%, 51%)"></use><use xlink:href="#SvgjsSymbol1004" x="68.75" y="62.5" fill="#fd59ff"></use><use xlink:href="#SvgjsSymbol1005" x="68.75" y="62.5" fill="#8e00cb"></use></g><g><use xlink:href="#SvgjsSymbol1003" x="187.5" y="237.5" fill="hsl(286, 100%, 51%)"></use><use xlink:href="#SvgjsSymbol1004" x="187.5" y="237.5" fill="#fd59ff"></use><use xlink:href="#SvgjsSymbol1005" x="187.5" y="237.5" fill="#8e00cb"></use></g><g><use xlink:href="#SvgjsSymbol1003" x="31.25" y="356.25" fill="hsl(286, 100%, 51%)"></use><use xlink:href="#SvgjsSymbol1004" x="31.25" y="356.25" fill="#fd59ff"></use><use xlink:href="#SvgjsSymbol1005" x="31.25" y="356.25" fill="#8e00cb"></use></g><g><use xlink:href="#SvgjsSymbol1003" x="68.75" y="212.5" fill="hsl(286, 100%, 51%)"></use><use xlink:href="#SvgjsSymbol1004" x="68.75" y="212.5" fill="#fd59ff"></use><use xlink:href="#SvgjsSymbol1005" x="68.75" y="212.5" fill="#8e00cb"></use></g><g><use xlink:href="#SvgjsSymbol1003" x="143.75" y="300" fill="hsl(286, 100%, 51%)"></use><use xlink:href="#SvgjsSymbol1004" x="143.75" y="300" fill="#fd59ff"></use><use xlink:href="#SvgjsSymbol1005" x="143.75" y="300" fill="#8e00cb"></use></g><g><use xlink:href="#SvgjsSymbol1003" x="156.25" y="506.25" fill="hsl(286, 100%, 51%)"></use><use xlink:href="#SvgjsSymbol1004" x="156.25" y="506.25" fill="#fd59ff"></use><use xlink:href="#SvgjsSymbol1005" x="156.25" y="506.25" fill="#8e00cb"></use></g><g><use xlink:href="#SvgjsSymbol1003" x="56.25" y="606.25" fill="hsl(286, 100%, 51%)"></use><use xlink:href="#SvgjsSymbol1004" x="56.25" y="606.25" fill="#fd59ff"></use><use xlink:href="#SvgjsSymbol1005" x="56.25" y="606.25" fill="#8e00cb"></use></g><g><use xlink:href="#SvgjsSymbol1003" x="106.25" y="718.75" fill="hsl(286, 100%, 51%)"></use><use xlink:href="#SvgjsSymbol1004" x="106.25" y="718.75" fill="#fd59ff"></use><use xlink:href="#SvgjsSymbol1005" x="106.25" y="718.75" fill="#8e00cb"></use></g><g><use xlink:href="#SvgjsSymbol1003" x="168.75" y="656.25" fill="hsl(286, 100%, 51%)"></use><use xlink:href="#SvgjsSymbol1004" x="168.75" y="656.25" fill="#fd59ff"></use><use xlink:href="#SvgjsSymbol1005" x="168.75" y="656.25" fill="#8e00cb"></use></g><g><use xlink:href="#SvgjsSymbol1003" x="31.25" y="712.5" fill="hsl(286, 100%, 51%)"></use><use xlink:href="#SvgjsSymbol1004" x="31.25" y="712.5" fill="#fd59ff"></use><use xlink:href="#SvgjsSymbol1005" x="31.25" y="712.5" fill="#8e00cb"></use></g><g><use xlink:href="#SvgjsSymbol1003" x="206.25" y="737.5" fill="hsl(286, 100%, 51%)"></use><use xlink:href="#SvgjsSymbol1004" x="206.25" y="737.5" fill="#fd59ff"></use><use xlink:href="#SvgjsSymbol1005" x="206.25" y="737.5" fill="#8e00cb"></use></g><g><use xlink:href="#SvgjsSymbol1003" x="75" y="493.75" fill="hsl(286, 100%, 51%)"></use><use xlink:href="#SvgjsSymbol1004" x="75" y="493.75" fill="#fd59ff"></use><use xlink:href="#SvgjsSymbol1005" x="75" y="493.75" fill="#8e00cb"></use></g><g><use xlink:href="#SvgjsSymbol1003" x="187.5" y="400" fill="hsl(286, 100%, 51%)"></use><use xlink:href="#SvgjsSymbol1004" x="187.5" y="400" fill="#fd59ff"></use><use xlink:href="#SvgjsSymbol1005" x="187.5" y="400" fill="#8e00cb"></use></g><g><use xlink:href="#SvgjsSymbol1003" x="175" y="131.25" fill="hsl(286, 100%, 51%)"></use><use xlink:href="#SvgjsSymbol1004" x="175" y="131.25" fill="#fd59ff"></use><use xlink:href="#SvgjsSymbol1005" x="175" y="131.25" fill="#8e00cb"></use></g><g><use xlink:href="#SvgjsSymbol1003" x="43.75" y="137.5" fill="hsl(286, 100%, 51%)"></use><use xlink:href="#SvgjsSymbol1004" x="43.75" y="137.5" fill="#fd59ff"></use><use xlink:href="#SvgjsSymbol1005" x="43.75" y="137.5" fill="#8e00cb"></use></g><g><use xlink:href="#SvgjsSymbol1003" x="218.75" y="12.5" fill="hsl(286, 100%, 51%)"></use><use xlink:href="#SvgjsSymbol1004" x="218.75" y="12.5" fill="#fd59ff"></use><use xlink:href="#SvgjsSymbol1005" x="218.75" y="12.5" fill="#8e00cb"></use></g><g><use xlink:href="#SvgjsSymbol1003" x="587.5" y="737.5" fill="hsl(123, 89%, 42%)"></use><use xlink:href="#SvgjsSymbol1004" x="587.5" y="737.5" fill="#64fe52"></use><use xlink:href="#SvgjsSymbol1005" x="587.5" y="737.5" fill="#009800"></use></g><g><use xlink:href="#SvgjsSymbol1003" x="518.75" y="687.5" fill="hsl(123, 89%, 42%)"></use><use xlink:href="#SvgjsSymbol1004" x="518.75" y="687.5" fill="#64fe52"></use><use xlink:href="#SvgjsSymbol1005" x="518.75" y="687.5" fill="#009800"></use></g><g><use xlink:href="#SvgjsSymbol1003" x="518.75" y="537.5" fill="hsl(123, 89%, 42%)"></use><use xlink:href="#SvgjsSymbol1004" x="518.75" y="537.5" fill="#64fe52"></use><use xlink:href="#SvgjsSymbol1005" x="518.75" y="537.5" fill="#009800"></use></g><g><use xlink:href="#SvgjsSymbol1003" x="431.25" y="543.75" fill="hsl(123, 89%, 42%)"></use><use xlink:href="#SvgjsSymbol1004" x="431.25" y="543.75" fill="#64fe52"></use><use xlink:href="#SvgjsSymbol1005" x="431.25" y="543.75" fill="#009800"></use></g><g><use xlink:href="#SvgjsSymbol1003" x="606.25" y="387.5" fill="hsl(123, 89%, 42%)"></use><use xlink:href="#SvgjsSymbol1004" x="606.25" y="387.5" fill="#64fe52"></use><use xlink:href="#SvgjsSymbol1005" x="606.25" y="387.5" fill="#009800"></use></g><g><use xlink:href="#SvgjsSymbol1003" x="500" y="343.75" fill="hsl(123, 89%, 42%)"></use><use xlink:href="#SvgjsSymbol1004" x="500" y="343.75" fill="#64fe52"></use><use xlink:href="#SvgjsSymbol1005" x="500" y="343.75" fill="#009800"></use></g><g><use xlink:href="#SvgjsSymbol1003" x="575" y="218.75" fill="hsl(123, 89%, 42%)"></use><use xlink:href="#SvgjsSymbol1004" x="575" y="218.75" fill="#64fe52"></use><use xlink:href="#SvgjsSymbol1005" x="575" y="218.75" fill="#009800"></use></g><g><use xlink:href="#SvgjsSymbol1003" x="450" y="206.25" fill="hsl(123, 89%, 42%)"></use><use xlink:href="#SvgjsSymbol1004" x="450" y="206.25" fill="#64fe52"></use><use xlink:href="#SvgjsSymbol1005" x="450" y="206.25" fill="#009800"></use></g><g><use xlink:href="#SvgjsSymbol1003" x="487.5" y="68.75" fill="hsl(123, 89%, 42%)"></use><use xlink:href="#SvgjsSymbol1004" x="487.5" y="68.75" fill="#64fe52"></use><use xlink:href="#SvgjsSymbol1005" x="487.5" y="68.75" fill="#009800"></use></g><g><use xlink:href="#SvgjsSymbol1003" x="575" y="18.75" fill="hsl(123, 89%, 42%)"></use><use xlink:href="#SvgjsSymbol1004" x="575" y="18.75" fill="#64fe52"></use><use xlink:href="#SvgjsSymbol1005" x="575" y="18.75" fill="#009800"></use></g><g><use xlink:href="#SvgjsSymbol1003" x="212.5" y="93.75" fill="hsl(123, 89%, 42%)"></use><use xlink:href="#SvgjsSymbol1004" x="212.5" y="93.75" fill="#64fe52"></use><use xlink:href="#SvgjsSymbol1005" x="212.5" y="93.75" fill="#009800"></use></g><g><use xlink:href="#SvgjsSymbol1003" x="106.25" y="112.5" fill="hsl(123, 89%, 42%)"></use><use xlink:href="#SvgjsSymbol1004" x="106.25" y="112.5" fill="#64fe52"></use><use xlink:href="#SvgjsSymbol1005" x="106.25" y="112.5" fill="#009800"></use></g><g><use xlink:href="#SvgjsSymbol1003" x="125" y="256.25" fill="hsl(123, 89%, 42%)"></use><use xlink:href="#SvgjsSymbol1004" x="125" y="256.25" fill="#64fe52"></use><use xlink:href="#SvgjsSymbol1005" x="125" y="256.25" fill="#009800"></use></g><g><use xlink:href="#SvgjsSymbol1003" x="37.5" y="325" fill="hsl(123, 89%, 42%)"></use><use xlink:href="#SvgjsSymbol1004" x="37.5" y="325" fill="#64fe52"></use><use xlink:href="#SvgjsSymbol1005" x="37.5" y="325" fill="#009800"></use></g><g><use xlink:href="#SvgjsSymbol1003" x="118.75" y="400" fill="hsl(123, 89%, 42%)"></use><use xlink:href="#SvgjsSymbol1004" x="118.75" y="400" fill="#64fe52"></use><use xlink:href="#SvgjsSymbol1005" x="118.75" y="400" fill="#009800"></use></g><g><use xlink:href="#SvgjsSymbol1003" x="106.25" y="462.5" fill="hsl(123, 89%, 42%)"></use><use xlink:href="#SvgjsSymbol1004" x="106.25" y="462.5" fill="#64fe52"></use><use xlink:href="#SvgjsSymbol1005" x="106.25" y="462.5" fill="#009800"></use></g><g><use xlink:href="#SvgjsSymbol1003" x="43.75" y="437.5" fill="hsl(123, 89%, 42%)"></use><use xlink:href="#SvgjsSymbol1004" x="43.75" y="437.5" fill="#64fe52"></use><use xlink:href="#SvgjsSymbol1005" x="43.75" y="437.5" fill="#009800"></use></g><g><use xlink:href="#SvgjsSymbol1003" x="150" y="581.25" fill="hsl(123, 89%, 42%)"></use><use xlink:href="#SvgjsSymbol1004" x="150" y="581.25" fill="#64fe52"></use><use xlink:href="#SvgjsSymbol1005" x="150" y="581.25" fill="#009800"></use></g><g><use xlink:href="#SvgjsSymbol1003" x="43.75" y="650" fill="hsl(123, 89%, 42%)"></use><use xlink:href="#SvgjsSymbol1004" x="43.75" y="650" fill="#64fe52"></use><use xlink:href="#SvgjsSymbol1005" x="43.75" y="650" fill="#009800"></use></g><g><use xlink:href="#SvgjsSymbol1003" x="162.5" y="750" fill="hsl(123, 89%, 42%)"></use><use xlink:href="#SvgjsSymbol1004" x="162.5" y="750" fill="#64fe52"></use><use xlink:href="#SvgjsSymbol1005" x="162.5" y="750" fill="#009800"></use></g><g><use xlink:href="#SvgjsSymbol1003" x="43.75" y="762.5" fill="hsl(123, 89%, 42%)"></use><use xlink:href="#SvgjsSymbol1004" x="43.75" y="762.5" fill="#64fe52"></use><use xlink:href="#SvgjsSymbol1005" x="43.75" y="762.5" fill="#009800"></use></g><g><use xlink:href="#SvgjsSymbol1003" x="25" y="537.5" fill="hsl(123, 89%, 42%)"></use><use xlink:href="#SvgjsSymbol1004" x="25" y="537.5" fill="#64fe52"></use><use xlink:href="#SvgjsSymbol1005" x="25" y="537.5" fill="#009800"></use></g><g><use xlink:href="#SvgjsSymbol1003" x="462.5" y="425" fill="hsl(123, 89%, 42%)"></use><use xlink:href="#SvgjsSymbol1004" x="462.5" y="425" fill="#64fe52"></use><use xlink:href="#SvgjsSymbol1005" x="462.5" y="425" fill="#009800"></use></g><g><use xlink:href="#SvgjsSymbol1003" x="400" y="743.75" fill="hsl(123, 89%, 42%)"></use><use xlink:href="#SvgjsSymbol1004" x="400" y="743.75" fill="#64fe52"></use><use xlink:href="#SvgjsSymbol1005" x="400" y="743.75" fill="#009800"></use></g><g><use xlink:href="#SvgjsSymbol1003" x="437.5" y="118.75" fill="hsl(123, 89%, 42%)"></use><use xlink:href="#SvgjsSymbol1004" x="437.5" y="118.75" fill="#64fe52"></use><use xlink:href="#SvgjsSymbol1005" x="437.5" y="118.75" fill="#009800"></use></g><g><use xlink:href="#SvgjsSymbol1003" x="412.5" y="18.75" fill="hsl(123, 89%, 42%)"></use><use xlink:href="#SvgjsSymbol1004" x="412.5" y="18.75" fill="#64fe52"></use><use xlink:href="#SvgjsSymbol1005" x="412.5" y="18.75" fill="#009800"></use></g></g><symbol id="SvgjsSymbol1000"><polygon points="0,12.5 25,0 50,12.5 25,25"></polygon></symbol><symbol id="SvgjsSymbol1001"><polygon points="0,12.5 25,25 25,50 0,37.5"></polygon></symbol><symbol id="SvgjsSymbol1002"><polygon points="25,25 50,12.5 50,37.5 25,50"></polygon></symbol><g></g><symbol id="SvgjsSymbol1003"><polygon points="0,6.25 12.5,0 25,6.25 12.5,12.5"></polygon></symbol><symbol id="SvgjsSymbol1004"><polygon points="0,6.25 12.5,12.5 12.5,25 0,18.75"></polygon></symbol><symbol id="SvgjsSymbol1005"><polygon points="12.5,12.5 25,6.25 25,18.75 12.5,25"></polygon></symbol></svg>