<svg id="visual" viewBox="0 0 900 600" width="900" height="600" xmlns="http://www.w3.org/2000/svg" xmlns:xlink="http://www.w3.org/1999/xlink" version="1.1"><rect x="0" y="0" width="900" height="600" fill="#191414"></rect><defs><linearGradient id="grad1_0" x1="33.3%" y1="0%" x2="100%" y2="100%"><stop offset="20%" stop-color="#1db954" stop-opacity="1"></stop><stop offset="80%" stop-color="#1db954" stop-opacity="1"></stop></linearGradient></defs><defs><linearGradient id="grad1_1" x1="33.3%" y1="0%" x2="100%" y2="100%"><stop offset="20%" stop-color="#1db954" stop-opacity="1"></stop><stop offset="80%" stop-color="#6d831a" stop-opacity="1"></stop></linearGradient></defs><defs><linearGradient id="grad1_2" x1="33.3%" y1="0%" x2="100%" y2="100%"><stop offset="20%" stop-color="#6c5217" stop-opacity="1"></stop><stop offset="80%" stop-color="#6d831a" stop-opacity="1"></stop></linearGradient></defs><defs><linearGradient id="grad1_3" x1="33.3%" y1="0%" x2="100%" y2="100%"><stop offset="20%" stop-color="#6c5217" stop-opacity="1"></stop><stop offset="80%" stop-color="#4b2c1e" stop-opacity="1"></stop></linearGradient></defs><defs><linearGradient id="grad1_4" x1="33.3%" y1="0%" x2="100%" y2="100%"><stop offset="20%" stop-color="#191414" stop-opacity="1"></stop><stop offset="80%" stop-color="#4b2c1e" stop-opacity="1"></stop></linearGradient></defs><defs><linearGradient id="grad2_0" x1="0%" y1="0%" x2="66.7%" y2="100%"><stop offset="20%" stop-color="#1db954" stop-opacity="1"></stop><stop offset="80%" stop-color="#1db954" stop-opacity="1"></stop></linearGradient></defs><defs><linearGradient id="grad2_1" x1="0%" y1="0%" x2="66.7%" y2="100%"><stop offset="20%" stop-color="#6d831a" stop-opacity="1"></stop><stop offset="80%" stop-color="#1db954" stop-opacity="1"></stop></linearGradient></defs><defs><linearGradient id="grad2_2" x1="0%" y1="0%" x2="66.7%" y2="100%"><stop offset="20%" stop-color="#6d831a" stop-opacity="1"></stop><stop offset="80%" stop-color="#6c5217" stop-opacity="1"></stop></linearGradient></defs><defs><linearGradient id="grad2_3" x1="0%" y1="0%" x2="66.7%" y2="100%"><stop offset="20%" stop-color="#4b2c1e" stop-opacity="1"></stop><stop offset="80%" stop-color="#6c5217" stop-opacity="1"></stop></linearGradient></defs><defs><linearGradient id="grad2_4" x1="0%" y1="0%" x2="66.7%" y2="100%"><stop offset="20%" stop-color="#4b2c1e" stop-opacity="1"></stop><stop offset="80%" stop-color="#191414" stop-opacity="1"></stop></linearGradient></defs><g transform="translate(900, 0)"><path d="M0 243.4C-29.1 233.5 -58.2 223.6 -88.4 213.4C-118.6 203.3 -150.1 192.8 -172.1 172.1C-194.1 151.4 -206.8 120.3 -217.1 89.9C-227.4 59.5 -235.4 29.8 -243.4 0L0 0Z" fill="#331f1c"></path><path d="M0 194.7C-23.3 186.8 -46.5 178.9 -70.7 170.7C-94.9 162.6 -120 154.3 -137.7 137.7C-155.3 121.1 -165.4 96.3 -173.7 71.9C-181.9 47.6 -188.3 23.8 -194.7 0L0 0Z" fill="#5f3d1c"></path><path d="M0 146C-17.4 140.1 -34.9 134.1 -53 128C-71.2 122 -90 115.7 -103.3 103.3C-116.5 90.8 -124.1 72.2 -130.3 54C-136.5 35.7 -141.2 17.9 -146 0L0 0Z" fill="#726913"></path><path d="M0 97.3C-11.6 93.4 -23.3 89.4 -35.4 85.4C-47.5 81.3 -60 77.1 -68.8 68.8C-77.7 60.5 -82.7 48.1 -86.8 36C-91 23.8 -94.2 11.9 -97.3 0L0 0Z" fill="#5a9e30"></path><path d="M0 48.7C-5.8 46.7 -11.6 44.7 -17.7 42.7C-23.7 40.7 -30 38.6 -34.4 34.4C-38.8 30.3 -41.4 24.1 -43.4 18C-45.5 11.9 -47.1 6 -48.7 0L0 0Z" fill="#1db954"></path></g><g transform="translate(0, 600)"><path d="M0 -243.4C27.2 -229.4 54.4 -215.5 85.3 -206C116.3 -196.6 150.9 -191.6 172.1 -172.1C193.3 -152.5 201 -118.4 210.6 -87.3C220.3 -56.1 231.8 -28.1 243.4 0L0 0Z" fill="#331f1c"></path><path d="M0 -194.7C21.8 -183.5 43.5 -172.4 68.3 -164.8C93 -157.3 120.7 -153.3 137.7 -137.7C154.6 -122 160.8 -94.7 168.5 -69.8C176.2 -44.9 185.5 -22.5 194.7 0L0 0Z" fill="#5f3d1c"></path><path d="M0 -146C16.3 -137.7 32.6 -129.3 51.2 -123.6C69.8 -117.9 90.5 -115 103.3 -103.3C116 -91.5 120.6 -71 126.4 -52.4C132.2 -33.7 139.1 -16.8 146 0L0 0Z" fill="#726913"></path><path d="M0 -97.3C10.9 -91.8 21.8 -86.2 34.1 -82.4C46.5 -78.6 60.4 -76.7 68.8 -68.8C77.3 -61 80.4 -47.3 84.3 -34.9C88.1 -22.5 92.7 -11.2 97.3 0L0 0Z" fill="#5a9e30"></path><path d="M0 -48.7C5.4 -45.9 10.9 -43.1 17.1 -41.2C23.3 -39.3 30.2 -38.3 34.4 -34.4C38.7 -30.5 40.2 -23.7 42.1 -17.5C44.1 -11.2 46.4 -5.6 48.7 0L0 0Z" fill="#1db954"></path></g></svg>