<svg xmlns="http://www.w3.org/2000/svg" version="1.1" xmlns:xlink="http://www.w3.org/1999/xlink" xmlns:svgjs="http://svgjs.dev/svgjs" width="2000" height="686" viewBox="0 0 2000 686"><g transform="matrix(1,0,0,1,-1.2121212121213603,-1.2536095566053973)"><svg viewBox="0 0 396 136" data-background-color="#191414" preserveAspectRatio="xMidYMid meet" height="686" width="2000" xmlns="http://www.w3.org/2000/svg" xmlns:xlink="http://www.w3.org/1999/xlink"><g id="tight-bounds" transform="matrix(1,0,0,1,0.24000000000003752,0.24852900830660474)"><svg viewBox="0 0 395.5199999999999 135.50294198338682" height="135.50294198338682" width="395.5199999999999"><g><svg viewBox="0 0 395.52000000000004 135.50294198338685" height="135.50294198338682" width="395.5199999999999"><g><svg viewBox="0 0 395.52000000000004 135.50294198338685" height="135.50294198338685" width="395.52000000000004"><g id="textblocktransform"><svg viewBox="0 0 395.52000000000004 135.50294198338685" height="135.50294198338685" width="395.52000000000004" id="textblock"><g><svg viewBox="0 0 395.52000000000004 135.50294198338685" height="135.50294198338685" width="395.52000000000004"><rect width="395.52000000000004" height="135.50294198338685" x="0" y="0" opacity="1" fill="#096a2e" data-fill-palette-color="tertiary"></rect><g transform="matrix(1,0,0,1,23.607599999999998,23.607599999999998)"><svg width="348.30480000000006" viewBox="0.2199999988079071 -36.0435791015625 144.1999969482422 36.557064056396484" height="88.28774198338687" data-palette-color="#1db954"><path d="M13.38-35.55L8.25-5.96 20.48-5.96 19.43 0 0.22 0 6.37-35.55 13.38-35.55ZM37.16-35.55L30.98 0 23.97 0 30.15-35.55 37.16-35.55ZM53.41-9.52L53.41-9.52Q53.66-11.33 52.89-12.54 52.12-13.75 49.69-14.9 47.26-16.06 45.62-17.31L45.62-17.31Q41.16-20.7 41.52-25.88L41.52-25.88Q41.74-28.86 43.39-31.19 45.04-33.52 47.8-34.81 50.56-36.11 53.71-36.04L53.71-36.04Q58.27-35.94 60.85-32.87 63.42-29.81 63.23-25.02L63.23-25.02 56.25-25.05Q56.51-30.05 53.05-30.13L53.05-30.13Q51.26-30.18 49.98-28.97 48.7-27.76 48.43-25.85L48.43-25.85Q48.07-23 52.39-20.97 56.71-18.95 58.59-16.41L58.59-16.41Q60.69-13.6 60.37-9.57L60.37-9.57Q60-4.93 56.71-2.16 53.41 0.61 48.48 0.51L48.48 0.51Q43.53 0.42 40.64-2.86 37.76-6.13 38.01-11.23L38.01-11.23 45.04-11.21Q44.84-8.06 45.86-6.7 46.87-5.35 49.04-5.35L49.04-5.35Q50.95-5.37 52.05-6.53 53.14-7.69 53.41-9.52ZM92.01-35.55L90.96-29.57 82.44-29.57 77.31 0 70.28 0 75.41-29.57 67.01-29.57 68.06-35.55 92.01-35.55ZM111.59-21.17L110.56-15.38 99.72-15.38 98.09-5.96 110.93-5.96 109.88 0 90.05 0 96.21-35.55 116.01-35.55 114.96-29.57 102.19-29.57 100.72-21.17 111.59-21.17ZM144.42-35.55L138.24 0 131.41 0 125.21-23.56 121.11 0 114.1 0 120.25-35.55 127.11-35.55 133.34-11.96 137.44-35.55 144.42-35.55Z" opacity="1" transform="matrix(1,0,0,1,0,0)" fill="#1db954" class="wordmark-text-0" data-fill-palette-color="quaternary" id="text-0"></path></svg></g></svg></g></svg></g></svg></g><g></g></svg></g><defs></defs></svg><rect width="395.5199999999999" height="135.50294198338682" fill="none" stroke="none" visibility="hidden"></rect></g></svg></g></svg>